# xmcd
#
# Track frame offsets:
#	150
#	19857
#	37335
#	58238
#	76067
#	98612
#	119747
#
# Disc length: 1851 seconds
#
# Revision: 0
# Processed by: cddbd v1.5.2PL0 Copyright (c) Steve Scherf et al.
# Submitted via: EZCDAudioConverter 8.0.2.1
#
DISCID=5a073907
DTITLE=Tôn Thất Sơn - Phố Em
DYEAR=2011
DGENRE=
TTITLE0=Đêm nằm mơ phố
TTITLE1=Ngẫu hứng phố
TTITLE2=Tìm về phố xưa
TTITLE3=Hát ru em
TTITLE4=Ngày mai anh đón em
TTITLE5=Thức dậy đi em
TTITLE6=Sao người đến muộn
EXTD=
EXTT0=
EXTT1=
EXTT2=
EXTT3=
EXTT4=
EXTT5=
EXTT6=
PLAYORDER=
